<?xml version="1.0" ?><svg viewBox="0 0 48 48" xmlns="http://www.w3.org/2000/svg"><title/><g data-name="Layer 23" id="Layer_23"><path d="M25,31H8a3,3,0,0,1-3-3V22a3,3,0,0,1,3-3H25a3,3,0,0,1,3,3v6A3,3,0,0,1,25,31ZM8,21a1,1,0,0,0-1,1v6a1,1,0,0,0,1,1H25a1,1,0,0,0,1-1V22a1,1,0,0,0-1-1Z"/><path d="M25,16H15a1,1,0,0,1-.92-.62,1,1,0,0,1,.21-1.09l10-10a1,1,0,0,1,1.09-.21A1,1,0,0,1,26,5V15A1,1,0,0,1,25,16Zm-7.59-2H24V7.41Z"/><path d="M9.85,27.29a1.66,1.66,0,0,1-1.62-.93l.83-.48a.82.82,0,0,0,.79.46.8.8,0,0,0,.57-.18.63.63,0,0,0,.19-.49V22.29h1v3.38a1.5,1.5,0,0,1-.48,1.19A1.78,1.78,0,0,1,9.85,27.29Z"/><path d="M14.27,22.29a1.64,1.64,0,0,1,1.19.48,1.56,1.56,0,0,1,.48,1.17,1.59,1.59,0,0,1-.48,1.17,1.67,1.67,0,0,1-1.19.47H13.4v1.61h-1v-4.9Zm0,2.39a.67.67,0,0,0,.51-.22.73.73,0,0,0,.2-.52.77.77,0,0,0-.2-.54.69.69,0,0,0-.51-.21H13.4v1.49Z"/><path d="M17.53,26.27H19.6v.92h-3v-4.9h3v.93h-2v1h1.86v.91H17.53Z"/><path d="M25.05,24.56v.38a2.26,2.26,0,0,1-.67,1.7,2.42,2.42,0,0,1-1.74.65,2.59,2.59,0,0,1-1.88-.74,2.45,2.45,0,0,1-.74-1.8,2.42,2.42,0,0,1,.74-1.81,2.46,2.46,0,0,1,1.83-.75,2.66,2.66,0,0,1,1.25.31,2.35,2.35,0,0,1,.88.83l-.82.48a1.4,1.4,0,0,0-.53-.49,1.62,1.62,0,0,0-.79-.19,1.52,1.52,0,0,0-1.15.46A1.59,1.59,0,0,0,21,24.75a1.51,1.51,0,0,0,.46,1.14,1.65,1.65,0,0,0,1.21.45,1.69,1.69,0,0,0,.93-.24,1.3,1.3,0,0,0,.5-.69H22.59v-.85Z"/><path d="M40,43H33.43a1,1,0,0,1,0-2H40a1,1,0,0,0,1-1V7a1,1,0,0,0-1-1H25.41L16,15.41V20a1,1,0,0,1-2,0V15a1,1,0,0,1,.29-.71l10-10A1,1,0,0,1,25,4H40a3,3,0,0,1,3,3V40A3,3,0,0,1,40,43Z"/><path d="M30.57,43H17a3,3,0,0,1-3-3V30a1,1,0,0,1,2,0V40a1,1,0,0,0,1,1H30.57a1,1,0,0,1,0,2Z"/><path d="M32,45a1,1,0,0,1-.81-.42l-5-7A1,1,0,0,1,27,36h1V31a1,1,0,0,1,1-1h6a1,1,0,0,1,1,1v5h1a1,1,0,0,1,.81,1.58l-5,7A1,1,0,0,1,32,45Zm-3.06-7L32,42.28,35.06,38H35a1,1,0,0,1-1-1V32H30v5a1,1,0,0,1-1,1Z"/></g></svg>